<?xml version="1.0" encoding="UTF-8"?>
<svg width="512" height="512" viewBox="0 0 512 512" fill="none" xmlns="http://www.w3.org/2000/svg">
  <!-- 背景圓形 -->
  <circle cx="256" cy="256" r="240" fill="#007bff"/>
  
  <!-- 撲克牌符號 -->
  <path d="M256 120C200 120 160 160 160 216C160 272 200 312 256 312C312 312 352 272 352 216C352 160 312 120 256 120ZM256 280C220 280 192 252 192 216C192 180 220 152 256 152C292 152 320 180 320 216C320 252 292 280 256 280Z" fill="white"/>
  <path d="M256 160C220 160 192 188 192 224C192 260 220 288 256 288C292 288 320 260 320 224C320 188 292 160 256 160Z" fill="#007bff"/>
</svg> 